<?xml version="1.0" encoding="UTF-8" standalone="no"?>
<!-- Created with Inkscape (http://www.inkscape.org/) -->

<svg
   width="125.547103881836mm"
   height="53.0211982727051mm"
   viewBox="0 0 125.547103881836 53.021198272705"
   version="1.1"
   id="svg5"
   inkscape:export-filename="C:\Users\Pieter\Desktop\odoo_logo_tiny.png"
   inkscape:export-xdpi="96"
   inkscape:export-ydpi="96"
   inkscape:version="1.1 (c68e22c387, 2021-05-23)"
   sodipodi:docname="website_logo.svg"
   xmlns:inkscape="http://www.inkscape.org/namespaces/inkscape"
   xmlns:sodipodi="http://sodipodi.sourceforge.net/DTD/sodipodi-0.dtd"
   xmlns="http://www.w3.org/2000/svg"
   xmlns:svg="http://www.w3.org/2000/svg">
  <sodipodi:namedview
     id="namedview7"
     pagecolor="#ffffff"
     bordercolor="#666666"
     borderopacity="1.0"
     inkscape:pageshadow="2"
     inkscape:pageopacity="0.0"
     inkscape:pagecheckerboard="0"
     inkscape:document-units="mm"
     showgrid="false"
     inkscape:snap-global="false"
     inkscape:zoom="1.87560355943851"
     inkscape:cx="206.600162411722"
     inkscape:cy="153.283991466761"
     inkscape:window-width="1920"
     inkscape:window-height="1017"
     inkscape:window-x="-8"
     inkscape:window-y="-8"
     inkscape:window-maximized="1"
     inkscape:current-layer="layer1" />
  <defs
     id="defs2">
    <linearGradient
       id="empty_state_file_happy-c"
       x1="102.238075256348"
       x2="28.791841506958"
       y1="132.613998413086"
       y2="20.6139984130859"
       gradientUnits="userSpaceOnUse">
      <stop
         offset="0%"
         stop-color="#875A7B"
         id="stop1234" />
      <stop
         offset="100%"
         stop-color="#6B4862"
         id="stop1236" />
    </linearGradient>
    <circle
       id="empty_state_file_happy-b"
       cx="56"
       cy="76.6139984130859"
       r="56" />
    <filter
       id="empty_state_file_happy-a"
       width="1.08571434020996"
       height="1.10357141494751"
       x="-0.0428571440279484"
       y="-0.0428571440279484"
       filterUnits="objectBoundingBox">
      <feOffset
         dy="2"
         in="SourceAlpha"
         result="shadowOffsetOuter1"
         id="feOffset1240" />
      <feGaussianBlur
         in="shadowOffsetOuter1"
         result="shadowBlurOuter1"
         stdDeviation="2"
         id="feGaussianBlur1242" />
      <feColorMatrix
         in="shadowBlurOuter1"
         values="0 0 0 0 0   0 0 0 0 0   0 0 0 0 0  0 0 0 0.106063179 0"
         id="feColorMatrix1244" />
    </filter>
    <path
       id="empty_state_file_happy-d"
       d="m 56,122.807018 c 30.927946,0 56,-25.1348917 56,-56.1403513 C 112,59.6606665 112,37.4384443 112,0 H 0 c 0,23.774138 0,45.9963602 0,66.6666667 0,31.0054596 25.072054,56.1403513 56,56.1403513 z" />
    <path
       id="empty_state_file_happy-f"
       d="M 22,6.01503759 H 84.3146067 L 100.5,22.556391 v 92.273183 0 c 0,9.388841 -7.6111593,17 -17,17 H 31 v 0 c -9.3888407,0 -17,-7.611159 -17,-17 v -100.8145364 0 c 0,-4.41827799999998 3.581722,-8.00000000999998 8,-8.00000001 z" />
  </defs>
  <g
     inkscape:label="Layer 1"
     inkscape:groupmode="layer"
     id="layer1"
     transform="translate(-42.0141013247859,-76.2638760540535)">
    <g
       id="g1994">
      <path
         d="m 126.356069699896,99.1838686695533 a 5.75733333333333,5.75733333333333 0 0 0 -5.368395833333,0 4.86304166666666,4.86304166666666 0 0 0 -1.852083333333,1.8520833333337 5.24404166666666,5.24404166666666 0 0 0 -0.677333333334,2.677583333333 5.29166666666666,5.29166666666666 0 0 0 0.677333333334,2.696104166667 4.84716666666666,4.84716666666666 0 0 0 1.852083333333,1.852083333333 5.75733333333333,5.75733333333333 0 0 0 5.368395833333,0 4.88156249999999,4.88156249999999 0 0 0 1.852083333334,-1.852083333333 5.68324999999999,5.68324999999999 0 0 0 0,-5.381625 4.88156249999999,4.88156249999999 0 0 0 -1.852083333334,-1.8441458333337 z"
         fill="#909090"
         id="path1820"
         style="fill:blue;stroke-width:0.264583" />
      <path
         d="m 140.13027803323,99.1521186695534 a 5.22552083333333,5.22552083333333 0 0 0 -5.117041666667,0 4.73339583333333,4.73339583333333 0 0 0 -1.756833333333,1.8520833333336 6.06424999999999,6.06424999999999 0 0 0 0,5.408083333333 4.70693749999999,4.70693749999999 0 0 0 1.756833333333,1.852083333333 5.22022916666666,5.22022916666666 0 0 0 5.124979166667,0 4.76249999999999,4.76249999999999 0 0 0 1.756833333333,-1.852083333333 6.02985416666666,6.02985416666666 0 0 0 0,-5.408083333333 4.76249999999999,4.76249999999999 0 0 0 -1.764770833333,-1.8520833333336 z"
         fill="#909090"
         id="path1822"
         style="fill:blue;stroke-width:0.264583" />
      <path
         d="m 71.346548866563,101.604806169553 a 2.45797916666666,2.45797916666666 0 0 0 -2.3600833333333,0 2.25160416666666,2.25160416666666 0 0 0 -0.85725,0.851958333334 2.44475,2.44475 0 0 0 -0.3201458333334,1.2620625 2.40241666666666,2.40241666666666 0 0 0 0.3201458333334,1.254125 2.28864583333333,2.28864583333333 0 0 0 0.85725,0.846666666666 2.38125,2.38125 0 0 0 3.2199791666666,-0.846666666666 2.428875,2.428875 0 0 0 0.3201458333334,-1.254125 2.47120833333333,2.47120833333333 0 0 0 -0.3201458333334,-1.2620625 2.27541666666666,2.27541666666666 0 0 0 -0.8598958333333,-0.851958333334 z"
         fill="#909090"
         id="path1824"
         style="fill:blue;stroke-width:0.264583" />
      <path
         d="m 154.796132199896,99.1838686695533 a 5.75733333333333,5.75733333333333 0 0 0 -5.368395833333,0 4.86304166666666,4.86304166666666 0 0 0 -1.852083333333,1.8520833333337 5.24404166666666,5.24404166666666 0 0 0 -0.677333333334,2.677583333333 5.29166666666666,5.29166666666666 0 0 0 0.685270833334,2.682875 4.84716666666666,4.84716666666666 0 0 0 1.852083333333,1.852083333333 5.75733333333333,5.75733333333333 0 0 0 5.368395833333,0 4.88156249999999,4.88156249999999 0 0 0 1.852083333334,-1.852083333333 5.68324999999999,5.68324999999999 0 0 0 0,-5.381625 4.88156249999999,4.88156249999999 0 0 0 -1.860020833334,-1.8309166666667 z"
         fill="#909090"
         id="path1826"
         style="fill:blue;stroke-width:0.264583" />
      <path
         d="m 86.4092780332296,79.46447283622 c -13.8482916666666,3.2385 -24.7332499999999,6.7071875 -32.2632916666666,10.3055208333334 l 3.6644791666667,5.413375 3.889375,-5.74675 h 6.6489791666666 l -7.77875,11.3162291666666 v 9.376833333333 H 55.050861366563 v -9.376833333333 l -5.7520416666666,-8.366125 c -19.3939583333334,12.027958333333 -1.2620625,25.151291666667 68.8604583333336,35.602333333333 83.076520833333,12.3825 53.837416666666,-68.5429583333329 -31.7500000000004,-48.524583333333 z m 5.222875,24.976666666667 q 0,3.212041666666 -1.7515416666666,4.654020833333 -1.7515416666667,1.441979166667 -5.6753125,1.441979166667 -3.9290625,0 -5.6779583333333,-1.441979166667 a 4.51114583333333,4.51114583333333 0 0 1 -1.3890625,-2.116666666667 c -0.0555625,0.09789583333 -0.1137708333334,0.193145833334 -0.1772708333334,0.288395833334 a 7.06702083333332,7.06702083333332 0 0 1 -2.809875,2.410354166666 9.54881249999999,9.54881249999999 0 0 1 -7.9666041666666,0 7.02997916666666,7.02997916666666 0 0 1 -2.809875,-2.410354166666 6.57489583333333,6.57489583333333 0 0 1 0,-7.0881875 7.04585416666666,7.04585416666666 0 0 1 2.809875,-2.4077083333336 9.52499999999999,9.52499999999999 0 0 1 7.9666041666666,0 7.12522916666666,7.12522916666666 0 0 1 2.6273125,2.1563541666666 v -2.6378958333333 h 5.2175833333334 v 5.8472916666663 c 0,1.177395833334 0.1666875,2.005541666667 0.4974166666666,2.4765 0.3307291666667,0.470958333334 0.904875,0.709083333334 1.7250833333334,0.709083333334 0.8202083333333,0 1.3784791666666,-0.235479166667 1.7039166666666,-0.709083333334 0.3254375,-0.473604166666 0.4894791666667,-1.299104166666 0.4894791666667,-2.4765 v -5.8472916666663 h 5.2202291666666 z m 10.0859166666664,-2.248958333334 a 3.86556249999999,3.86556249999999 0 0 0 -1.098020833333,-0.5635625 3.65654166666666,3.65654166666666 0 0 0 -1.1615208333334,-0.2143125 2.4765,2.4765 0 0 0 -1.2594166666666,0.346604166667 2.841625,2.841625 0 0 0 -0.9604375,0.8969375 2.11666666666666,2.11666666666666 0 0 0 -0.3624791666667,1.190625 v 6.281208333333 H 91.6559655332297 V 97.2894520028867 h 5.2202291666666 v 1.8071041666666 a 5.93724999999999,5.93724999999999 0 0 1 1.8758958333333,-1.6245416666666 4.57464583333333,4.57464583333333 0 0 1 2.2119166666664,-0.5715 5.43718749999999,5.43718749999999 0 0 1 1.568979166667,0.2645833333333 4.47675,4.47675 0 0 1 1.367895833333,0.6535208333334 z m 15.292916666667,7.9375 H 106.42765303323 V 89.4366186695534 h 1.905 v 19.0182499999996 h 8.670395833333 z m 27.252083333333,0.351895833334 a 7.10935416666666,7.10935416666666 0 0 1 -0.841375,3.5956875 5.36839583333333,5.36839583333333 0 0 1 -2.402416666666,2.206625 8.55133333333332,8.55133333333332 0 0 1 -3.720041666667,0.746125 q -2.434166666667,0 -4.114270833333,-0.9525 a 5.82083333333333,5.82083333333333 0 0 1 -2.489729166667,-2.772833333334 l 1.545166666667,-0.714375 a 4.524375,4.524375 0 0 0 1.955270833333,2.116666666667 6.13568749999999,6.13568749999999 0 0 0 3.1115,0.79375 5.78114583333333,5.78114583333333 0 0 0 2.629958333333,-0.582083333333 4.43706249999999,4.43706249999999 0 0 0 1.830916666667,-1.688041666667 5.00327083333333,5.00327083333333 0 0 0 0.672041666667,-2.645833333333 v -3.159125 a 5.91872916666666,5.91872916666666 0 0 1 -2.203979166667,2.283354166666 5.99016666666666,5.99016666666666 0 0 1 -3.116791666667,0.828145833334 6.10922916666666,6.10922916666666 0 0 1 -3.241145833333,-0.878416666667 6.30237499999999,6.30237499999999 0 0 1 -2.296583333333,-2.4209375 6.93737499999999,6.93737499999999 0 0 1 -0.822854166667,-2.910416666667 6.50874999999999,6.50874999999999 0 0 1 -0.902229166667,2.936875 6.59341666666666,6.59341666666666 0 0 1 -2.553229166666,2.407708333334 8.00364583333332,8.00364583333332 0 0 1 -7.239,0 6.61458333333333,6.61458333333333 0 0 1 -2.553229166667,-2.407708333334 7.19137499999999,7.19137499999999 0 0 1 0,-7.106708333333 6.59870833333333,6.59870833333333 0 0 1 2.553229166667,-2.4024166666666 7.98247916666666,7.98247916666666 0 0 1 7.239,0 6.58018749999999,6.58018749999999 0 0 1 2.553229166666,2.4024166666666 6.44789583333333,6.44789583333333 0 0 1 0.915458333334,2.934229166667 7.01674999999999,7.01674999999999 0 0 1 0.814916666666,-2.883958333334 6.40556249999999,6.40556249999999 0 0 1 2.291291666667,-2.4288749999996 6.17008333333333,6.17008333333333 0 0 1 3.2781875,-0.8784166666667 6.04837499999999,6.04837499999999 0 0 1 3.106208333333,0.79375 5.69118749999999,5.69118749999999 0 0 1 2.177520833334,2.2568958333333 v -2.6617083333333 h 1.830916666666 z m 14.022916666667,-3.222625 a 6.59341666666666,6.59341666666666 0 0 1 -2.553229166667,2.407708333333 8.00364583333332,8.00364583333332 0 0 1 -7.239,0 6.61458333333333,6.61458333333333 0 0 1 -2.553229166666,-2.407708333333 7.19137499999999,7.19137499999999 0 0 1 0,-7.106708333334 6.59870833333333,6.59870833333333 0 0 1 2.553229166666,-2.4024166666663 7.98247916666666,7.98247916666666 0 0 1 7.239,0 6.58018749999999,6.58018749999999 0 0 1 2.553229166667,2.4024166666663 7.17285416666666,7.17285416666666 0 0 1 0,7.106708333334 z"
         fill="#909090"
         id="path1828"
         style="fill:blue;stroke-width:0.264583" />
      <path
         d="M 53.9210905332297,89.4366186695534 H 47.272111366563 l 2.0267083333334,2.9501041666666 a 51.0963333333333,51.0963333333333 0 0 1 4.8471666666666,-2.6167291666666 z"
         fill="#909090"
         id="path1830"
         style="fill:blue;stroke-width:0.264583" />
      <path
         d="m 76.9610071998963,100.168118669553 c -0.058208333333,-0.08466666667 -0.1217083333333,-0.1666875 -0.1825625,-0.2513541666663 v 4.5243750000003 a 8.16239583333332,8.16239583333332 0 0 0 0.3598333333334,2.526770833333 6.59870833333333,6.59870833333333 0 0 0 -0.1772708333334,-6.799791666667 z"
         fill="#909090"
         id="path1832"
         style="fill:blue;stroke-width:0.264583" />
      <path
         d="m 130.758736366563,103.091764502887 c -0.015875,0.203729166666 -0.0238125,0.410104166666 -0.0238125,0.621770833333 0,0.211666666667 0,0.415395833333 0.0238125,0.619125 0.015875,-0.203729166667 0.02645833333,-0.407458333333 0.02645833333,-0.619125 0,-0.211666666667 -0.01058333333,-0.418041666667 -0.02645833333,-0.621770833333 z"
         fill="#909090"
         id="path1834"
         style="stroke-width:0.264583" />
    </g>
  </g>
</svg>
